<?xml version="1.0" encoding="UTF-8"?>
<!DOCTYPE svg PUBLIC "-//W3C//DTD SVG 1.1//EN" "http://www.w3.org/Graphics/SVG/1.1/DTD/svg11.dtd">
<!-- Creator: CorelDRAW (Evaluation Version) -->
<svg xmlns="http://www.w3.org/2000/svg" xml:space="preserve" width="500mm" height="328.916mm" version="1.1" style="shape-rendering:geometricPrecision; text-rendering:geometricPrecision; image-rendering:optimizeQuality; fill-rule:evenodd; clip-rule:evenodd"
viewBox="0 0 50000 32891.6"
 xmlns:xlink="http://www.w3.org/1999/xlink"
 xmlns:xodm="http://www.corel.com/coreldraw/odm/2003">
 <defs>
  <style type="text/css">
   <![CDATA[
    .str0 {stroke:#2B2A29;stroke-width:20;stroke-miterlimit:22.9256}
    .fil1 {fill:url(#id0)}
    .fil0 {fill:url(#id1)}
   ]]>
  </style>
  <linearGradient id="id0" gradientUnits="userSpaceOnUse" x1="63752.93" y1="2467.17" x2="10953.52" y2="3983.9">
   <stop offset="0" style="stop-opacity:1; stop-color:#01FF01"/>
   <stop offset="0.811765" style="stop-opacity:0.501961; stop-color:#80FF80"/>
   <stop offset="1" style="stop-opacity:0; stop-color:white"/>
  </linearGradient>
  <linearGradient id="id1" gradientUnits="userSpaceOnUse" x1="-13043.37" y1="36656.65" x2="36963.67" y2="35538.85">
   <stop offset="0" style="stop-opacity:0; stop-color:white"/>
   <stop offset="0.858824" style="stop-opacity:0.345098; stop-color:#80FF80"/>
   <stop offset="1" style="stop-opacity:0.686275; stop-color:#01FF01"/>
  </linearGradient>
 </defs>
 <g id="Layer_x0020_1">
  <metadata id="CorelCorpID_0Corel-Layer"/>
  <g id="_2130476952480">
   <path class="fil0 str0" d="M1675.18 16498.69c2368.75,-700.75 7774,-2003.26 10492.95,-2670.72 2718.9,-667.52 2751.43,-700.12 1904.84,-765.19 -846.58,-65.13 -2572.36,-162.86 -3402.68,-244.26 -830.32,-81.4 -765.25,-146.53 -569.85,-553.53 195.33,-407.05 520.99,-1155.97 1025.71,-1970.02 504.67,-814.06 1188.51,-1693.18 1904.9,-2507.24 716.33,-814.05 1465.25,-1562.97 2311.84,-2149.09 846.59,-586.13 1790.9,-1009.39 2735.22,-1383.85 944.25,-374.46 1888.51,-700.12 3223.56,-1041.98 1335.04,-341.93 3060.81,-700.06 5161.05,-1123.39 2100.23,-423.32 4574.98,-911.72 6040.23,-1269.91 1465.31,-358.19 1921.17,-586.12 2132.83,-732.65 211.66,-146.53 179.07,-211.61 358.14,700.11 179.12,911.72 569.85,2800.3 1074.52,4965.66 504.72,2165.37 1123.44,4607.47 1514.16,6235.57 390.73,1628.11 553.53,2442.16 651.2,2849.21 97.73,407 130.26,407 -2784.02,-504.72 -2914.23,-911.72 -8775.4,-2735.22 -11705.96,-3646.94 -2930.55,-911.72 -2930.55,-911.72 -2963.09,472.19 -32.59,1383.85 -97.72,4151.55 -130.26,5535.45 -32.59,1383.85 -32.59,1383.85 -3173.55,1270.49 -3140.95,-113.3 -9422.85,-339.91 -12752.19,-453.22 -3329.33,-113.36 -3706.03,-113.36 -4228.29,-162.85 -522.25,-49.5 -1190,-148.43 1178.74,-849.12z"/>
   <path class="fil1 str0" d="M48846.38 19637.97c-2430.38,721.79 -9294.38,2194.74 -12763.17,2916.48 -3468.79,721.73 -3542.43,692.29 -2646.98,689.94 895.45,-2.36 2759.94,22.36 3659.64,67.31 899.71,44.96 834.64,110.09 639.24,517.08 -195.33,407.06 -520.99,1155.98 -1025.71,1970.03 -504.67,814.06 -1188.51,1693.18 -1904.9,2507.24 -716.33,814.05 -1465.25,1562.97 -2311.84,2149.09 -846.59,586.12 -1790.9,1009.39 -2735.22,1383.85 -944.25,374.46 -1888.51,700.12 -3152.91,882.63 -1264.39,182.52 -2848.86,221.9 -4222.88,101.7 -1374.08,-120.21 -2537.76,-400.1 -3642.46,-834.64 -1104.7,-434.47 -2150.53,-1023.7 -2967.98,-1568.72 -817.5,-544.96 -1406.67,-1045.72 -2084.19,-1701.23 -677.58,-655.45 -1443.52,-1465.53 -2068.56,-2395.88 -625.1,-930.29 -1109.24,-1980.83 -1432.71,-2913.13 -323.53,-932.25 -486.33,-1746.3 -584,-2153.36 -97.73,-406.99 -130.26,-406.99 2784.02,504.73 2914.23,911.72 8775.4,2735.22 11705.96,3646.94 2930.55,911.72 2930.55,911.72 2963.09,-472.19 32.59,-1383.85 97.72,-4151.55 130.26,-5535.45 32.6,-1383.85 32.6,-1383.85 3153.83,-1255.2 3121.29,128.65 9363.88,385.96 12705.97,545.71 3342.09,159.81 3783.76,222.01 5006.19,238.39 1222.43,16.44 3225.68,-13.05 795.31,708.68z"/>
  </g>
 </g>
</svg>
